<svg id="Layer_1" data-name="Layer 1" xmlns="http://www.w3.org/2000/svg" width="49.87" height="69.127" viewBox="0 0 49.87 69.127">
  <path id="Path_10094" data-name="Path 10094" d="M44.069,41.22,37.094,48.2,30.11,55.188a4.906,4.906,0,0,1-6.922,0l-2.266-2.266-2.266-2.266a4.906,4.906,0,0,1,0-6.922l6.984-6.984,6.975-6.984a4.906,4.906,0,0,1,6.922,0L41.8,32.041l2.266,2.239a4.9,4.9,0,0,1,0,6.913Z" transform="translate(-1.861 -3.062)" fill="#eebb68"/>
  <path id="Path_10095" data-name="Path 10095" d="M51.1,67.992l-2.346,2.355-2.31,2.346a4.834,4.834,0,0,1-6.823,0L37.3,70.383l-2.31-2.31a4.843,4.843,0,0,1,0-6.832l2.355-2.346L39.7,56.539a4.834,4.834,0,0,1,6.823,0l2.31,2.31,2.31,2.319a4.834,4.834,0,0,1,0,6.823Z" transform="translate(-3.628 -5.956)" fill="#eebb68"/>
  <path id="Path_10096" data-name="Path 10096" d="M44.043,2.328,42.6,3.746,41.171,5.164,40.243,4.2l-.963-.963L40.7,1.784,42.116.4A1.356,1.356,0,0,1,43.08,0a1.383,1.383,0,0,1,.963.392,1.249,1.249,0,0,1,.339.5,1.284,1.284,0,0,1,0,.981,1.249,1.249,0,0,1-.339.455Z" transform="translate(-4.244 0)" fill="#eebb68"/>
  <path id="Path_10097" data-name="Path 10097" d="M5.013,41.373,3.666,42.72,2.319,44.067a1.329,1.329,0,0,1-.963.4,1.356,1.356,0,0,1-.963-.4A1.614,1.614,0,0,1,.1,43.621,1.481,1.481,0,0,1,0,43.1a1.258,1.258,0,0,1,.1-.482,1.329,1.329,0,0,1,.294-.455l1.391-1.329L3.131,39.5l.963.963Z" transform="translate(0 -4.268)" fill="#eebb68"/>
  <path id="Path_10098" data-name="Path 10098" d="M21.113,57.468l-1.347,1.347-1.347,1.347a1.347,1.347,0,0,1-.963.4,1.4,1.4,0,0,1-.963-.4,1.615,1.615,0,0,1-.294-.446,1.481,1.481,0,0,1-.1-.517,1.391,1.391,0,0,1,.392-.963l1.347-1.347,1.347-1.338.963.954Z" transform="translate(-1.739 -6.002)" fill="#eebb68"/>
  <path id="Path_10099" data-name="Path 10099" d="M44.43,30.306l1.347-1.347,1.347-1.347a1.32,1.32,0,0,1,.963-.392,1.383,1.383,0,0,1,.963.392,1.534,1.534,0,0,1,.294.455,1.391,1.391,0,0,1,.1.508,1.231,1.231,0,0,1-.1.508,1.249,1.249,0,0,1-.294.455L47.7,30.886l-1.347,1.347-.963-.963Z" transform="translate(-4.8 -2.941)" fill="#eebb68"/>
  <path id="Path_10100" data-name="Path 10100" d="M37.447,73.771l-1.338,1.347L34.727,76.5a1.383,1.383,0,0,1-.892.392,1.347,1.347,0,0,1-.963-.4,1.365,1.365,0,0,1-.3-.446,1.445,1.445,0,0,1-.1-.517,1.311,1.311,0,0,1,.4-.954l1.347-1.347,1.347-1.347.945,1Z" transform="translate(-3.508 -7.766)" fill="#eebb68"/>
  <path id="Path_10101" data-name="Path 10101" d="M50.29,57.1l1.347-1.32,1.347-1.347A1.317,1.317,0,0,1,54.91,54.4a1.436,1.436,0,0,1,.294.446,1.481,1.481,0,0,1,.1.517,1.258,1.258,0,0,1-.1.508,1.329,1.329,0,0,1-.294.455L53.6,57.684l-1.347,1.347-.963-.963Z" transform="translate(-5.433 -5.834)" fill="#eebb68"/>
  <path id="Path_10102" data-name="Path 10102" d="M37.511,14.434l-11.6,11.6-11.6,11.6a5.263,5.263,0,0,1-7.43,0L4.848,35.672,2.814,33.656a5.254,5.254,0,0,1,0-7.421l11.6-11.6,11.6-11.6a5.254,5.254,0,0,1,7.421,0l2.016,2.007L37.511,7.04a5.289,5.289,0,0,1,0,7.43Z" transform="translate(-0.138 -0.163)" fill="#eebb68"/>
</svg>
